<svg xmlns="http://www.w3.org/2000/svg" viewBox="0 0 363.98 116.02"><defs><style>.cls-1{fill:#465e38;}.cls-2{font-size:67.64px;fill:#333;font-family:Neris-Black, Neris;font-weight:800;}.cls-3{letter-spacing:-0.01em;}.cls-4{letter-spacing:-0.01em;}</style></defs><g id="Layer_2" data-name="Layer 2"><g id="Layer_1-2" data-name="Layer 1"><path class="cls-1" d="M101.16,116a15.72,15.72,0,1,1,11.11-4.6A15.62,15.62,0,0,1,101.16,116Z"/><path class="cls-1" d="M15.73,32.18A15.73,15.73,0,0,1,4.6,5.34a15.73,15.73,0,0,1,22.24,0,15.72,15.72,0,0,1,0,22.24A15.59,15.59,0,0,1,15.73,32.18Z"/><path class="cls-1" d="M100.45,31.71A15.73,15.73,0,0,1,89.32,4.87a15.73,15.73,0,1,1,11.13,26.84Z"/><path class="cls-1" d="M16.14,116A15.72,15.72,0,0,1,5,89.18a14.08,14.08,0,0,1,2.22-1.8c.27-.19.51-.34.77-.49.58-.34,1.16-.64,1.7-.89.3-.13.6-.27.92-.39A17.29,17.29,0,0,1,12.55,85l.4-.11.24-.06,3.5-.24c.44,0,.92.07,1.42.14l.2,0,.44,0h.14l.16,0h.14l.77,0a23,23,0,0,0,16.34-7,22.85,22.85,0,0,0,6.55-16.46v-.17l0-.19a4.4,4.4,0,0,1-.05-.51q0-.3-.06-.6l0-.35c0-.31-.06-.6-.08-.9l.26-3.51a2.58,2.58,0,0,1,.08-.26l.06-.22a15.35,15.35,0,0,1,.59-2,9.58,9.58,0,0,1,.38-.92A17.94,17.94,0,0,1,44.86,50c.15-.25.3-.5.47-.75a15.37,15.37,0,0,1,1.81-2.23A15.73,15.73,0,1,1,69.38,69.3a15.3,15.3,0,0,1-2.22,1.8c-.26.18-.51.33-.76.47a16.37,16.37,0,0,1-1.7.9c-.31.14-.62.28-.91.39a13.71,13.71,0,0,1-1.91.57l-.38.1-.25.08-3.54.25c-.41,0-.85-.08-1.31-.14l-.31,0-.44,0-.12,0-.18,0h-.91A23.2,23.2,0,0,0,31.55,97.1v.18l0,.17a4.4,4.4,0,0,1,.05.51c0,.21,0,.4.06.6a5,5,0,0,0,.06.55c0,.24,0,.48,0,.72v.08l-.25,3.37c0,.07-.13.46-.16.58a15.2,15.2,0,0,1-.58,2,7.9,7.9,0,0,1-.37.89,19.45,19.45,0,0,1-.91,1.75c-.15.24-.32.52-.5.78a14.48,14.48,0,0,1-1.79,2.19A15.58,15.58,0,0,1,16.14,116Z"/><path class="cls-1" d="M58.61,116A15.72,15.72,0,0,1,47.47,89.19a15.09,15.09,0,0,1,2.24-1.82c.23-.16.48-.31.74-.46A19,19,0,0,1,52.16,86l.91-.39a15.78,15.78,0,0,1,1.9-.55l.62-.18,3.56-.26c.42,0,.87.08,1.34.14l.27,0,.47,0h.17l.11,0h.15l.78,0A23.2,23.2,0,0,0,85.3,61.38l0-.73-.06-.08a.19.19,0,0,1,0-.08l0-.52-.06-.5c0-.28-.07-.55-.08-.83l.24-3.4c0-.09.14-.51.17-.63A16.29,16.29,0,0,1,86,52.67a9.22,9.22,0,0,1,.39-.91,18,18,0,0,1,.9-1.72l.07-.11c.12-.21.24-.41.38-.61a15.9,15.9,0,0,1,1.82-2.25,15.74,15.74,0,0,1,22.25,0,15.78,15.78,0,0,1,0,22.25,16.83,16.83,0,0,1-2.23,1.8l-.52.33-.27.17a17.38,17.38,0,0,1-1.66.86c-.32.15-.61.28-.92.4a15.35,15.35,0,0,1-1.93.56l-.4.12-.24.06-3.5.25c-.51,0-1.06-.1-1.6-.17l-.46,0H98l-.3,0h-.78A23.18,23.18,0,0,0,74,97.1v.18l0,.17a4.93,4.93,0,0,1,0,.54c0,.18,0,.37.05.54s0,.34,0,.53a7,7,0,0,1,.07.8L74,103.31l-.15.54a16.59,16.59,0,0,1-.58,2c-.1.28-.23.56-.35.84l-.05.1a16.54,16.54,0,0,1-.88,1.66c-.16.27-.31.53-.48.78A15.4,15.4,0,0,1,58.61,116Z"/><path class="cls-1" d="M16.15,73.57A15.73,15.73,0,0,1,5,46.73a15.81,15.81,0,0,1,2.23-1.81L8,44.43c.54-.32,1.1-.61,1.69-.89.3-.13.6-.27.93-.39a14.93,14.93,0,0,1,1.88-.55l.4-.11a1.66,1.66,0,0,1,.21-.06l3.56-.26c.46,0,1,.09,1.49.16h.11l.47,0h.15l.15,0H20a23,23,0,0,0,16.31-7,22.87,22.87,0,0,0,6.54-16.47v-.17l0-.17a3.68,3.68,0,0,1-.06-.58l0-.48L42.66,17c0-.28-.07-.58-.08-.87l.24-3.3,0-.08v-.06c0-.08.15-.52.15-.52a16.89,16.89,0,0,1,.58-2c.11-.3.25-.6.39-.9a15,15,0,0,1,.9-1.72l0-.09c.14-.23.27-.46.43-.68a15,15,0,0,1,1.79-2.21A15.73,15.73,0,1,1,69.38,26.85a15.41,15.41,0,0,1-2.22,1.79c-.24.17-.45.29-.66.42l-.12.07c-.58.34-1.14.64-1.68.89-.32.14-.61.28-.91.39a16.47,16.47,0,0,1-1.93.57,4,4,0,0,0-.41.11l-.25.07-3.49.24c-.44,0-.91-.08-1.4-.14l-.22,0-.45,0h-.29l-.16,0h-.78A23.2,23.2,0,0,0,31.55,54.65v.17l0,.18a4.53,4.53,0,0,1,.05.53c0,.19,0,.37.05.55s0,.34.06.52a6.83,6.83,0,0,1,.06.78l-.25,3.43a2.68,2.68,0,0,1-.07.27l-.09.31a14.86,14.86,0,0,1-.57,2c-.11.3-.26.61-.4.92A18.4,18.4,0,0,1,29.54,66c-.16.28-.31.53-.48.77A14.85,14.85,0,0,1,27.25,69a15.63,15.63,0,0,1-11.1,4.6Z"/><text class="cls-2" transform="translate(129.87 79.24)">DEB <tspan class="cls-3" x="146.31" y="0">c</tspan><tspan class="cls-4" x="177.9" y="0">o</tspan><tspan x="214.97" y="0">.</tspan></text></g></g></svg>